<svg width="20" height="21" viewBox="0 0 20 21" fill="none" xmlns="http://www.w3.org/2000/svg">
<path d="M19.4141 14.6406L15.0391 12.7656C14.9219 12.7266 14.7656 12.6875 14.6484 12.6875C14.4141 12.6875 14.1016 12.8438 13.9453 13.0391L11.9922 15.4219C9.41406 14.1719 6.28906 11.0859 5.07812 8.50781L7.46094 6.55469C7.65625 6.39844 7.8125 6.08594 7.8125 5.8125C7.8125 5.73438 7.77344 5.57812 7.73438 5.46094L5.85938 1.08594C5.70312 0.773438 5.3125 0.539062 4.96094 0.539062C4.92188 0.539062 4.84375 0.539062 4.76562 0.539062L0.703125 1.47656C0.3125 1.55469 0 1.98438 0 2.375C0 12.4141 8.08594 20.5 18.125 20.5C18.5156 20.5 18.9453 20.1875 19.0234 19.7969L19.9609 15.7344C19.9609 15.6562 19.9609 15.5781 19.9609 15.5391C19.9609 15.1875 19.7266 14.7969 19.4141 14.6406Z" fill="#626474"/>
</svg>
