<svg width="25" height="19" viewBox="0 0 25 19" fill="none" xmlns="http://www.w3.org/2000/svg">
<path d="M7.5 9.5C9.88281 9.5 11.875 7.54688 11.875 5.125C11.875 2.74219 9.88281 0.75 7.5 0.75C5.07812 0.75 3.125 2.74219 3.125 5.125C3.125 7.54688 5.07812 9.5 7.5 9.5ZM10.4688 10.75H10.1562C9.33594 11.1406 8.4375 11.375 7.5 11.375C6.52344 11.375 5.625 11.1406 4.80469 10.75H4.49219C1.99219 10.75 0 12.7812 0 15.2812V16.375C0 17.4297 0.820312 18.25 1.875 18.25H13.125C14.1406 18.25 15 17.4297 15 16.375V15.2812C15 12.7812 12.9688 10.75 10.4688 10.75ZM18.75 9.5C20.8203 9.5 22.5 7.82031 22.5 5.75C22.5 3.67969 20.8203 2 18.75 2C16.6797 2 15 3.67969 15 5.75C15 7.82031 16.6797 9.5 18.75 9.5ZM20.625 10.75H20.4688C19.9219 10.9453 19.3359 11.0625 18.75 11.0625C18.125 11.0625 17.5391 10.9453 16.9922 10.75H16.875C16.0547 10.75 15.3125 10.9844 14.6875 11.375C15.625 12.3906 16.25 13.7578 16.25 15.2812V16.7656C16.25 16.8438 16.2109 16.9219 16.2109 17H23.125C24.1406 17 25 16.1797 25 15.125C25 12.7422 23.0078 10.75 20.625 10.75Z" fill="#626474"/>
</svg>
